<?xml version="1.0" encoding="utf-8"?>
<!-- Uploaded to: SVG Repo, www.svgrepo.com, Generator: SVG Repo Mixer Tools -->
<svg width="800px" height="800px" viewBox="-154.06 0 469.874 469.874" xmlns="http://www.w3.org/2000/svg"><defs><style>.a{fill:#ffffff;}.b{fill:#bdbdbd;}.c{fill:#7a7473;}.d{fill:#6dbf6b;}.e{fill:#211715;}</style></defs><path class="a" d="M111.935,51.2a4.584,4.584,0,0,1,3.669-1.073,4.327,4.327,0,0,1,3.113,2.069,6.115,6.115,0,0,1,.641,2.463,18.345,18.345,0,0,1-1.87,9.724,11.682,11.682,0,0,1-3.015,3.957,7.734,7.734,0,0,1-3.595,1.62l-.615.095c-.3,1.1-.627,2.034-.789,2.528C108.466,75.314,103,84.536,96,88.411c.027,1.741.159,3.746.379,5.65A46.183,46.183,0,0,1,83.1,103.305c-.276.125-.584.278-.673.568a1.054,1.054,0,0,0,.149.741c-1.657,0-2.971.006-4.564.009a1.077,1.077,0,0,0,.15-.75c-.089-.29-.4-.443-.673-.568a46.361,46.361,0,0,1-12.78-8.743,58.3,58.3,0,0,0,.527-6.856,28.77,28.77,0,0,1-6.663-5.966,31.186,31.186,0,0,1-5.945-11.6l-1.172-.18a7.734,7.734,0,0,1-3.595-1.62,11.682,11.682,0,0,1-3.015-3.957,18.345,18.345,0,0,1-1.87-9.724,6.115,6.115,0,0,1,.641-2.463,4.329,4.329,0,0,1,3.113-2.069A4.583,4.583,0,0,1,50.4,51.2s2.043-25.967,30.487-25.967S111.935,51.2,111.935,51.2Z"/><path class="b" d="M82.491,156.266q-.363.842-.715,1.634l-.948-2.049C77.142,147.893,70.3,131.917,65.3,117.6c-2.5-7.161-4.727-13.2-6.11-17.312-10.1,4.19-17.6,7.572-26.74,11.669a35.1,35.1,0,0,0-4.643,2.013,5.284,5.284,0,0,0-1.45.84c-2.635,1.955-4.473,3.155-6.85,9.215C15.864,133.31,8.6,153.656,5.417,162.751c-3.019,8.637-5.1,13.531-1.812,20.187s10.256,10.983,15.4,14.562c5.094,3.543,11.379,7.422,17.349,10.905-1.523,14.385-2.664,23.951-3.854,39.111,6.994,1.468,27.115,2.236,33.769-.744,7.39-3.31,12.925-23.484,14.488-31.912l.355.03c2.706,14.052,7.7,30.06,14.231,32.447,7.092,2.591,27.912,1.987,35.327.476-1.239-15.854-2.423-25.576-4.035-40.9,5.539-3.263,11.244-6.812,15.939-10.077,5.146-3.579,12.119-7.906,15.4-14.563s1.568-11.548-1.451-20.186c-3.178-9.094-10.808-29.441-14.449-38.725-2.377-6.06-4-6.592-6.85-9.214,0,0-.146-.134-.348-.33a38.364,38.364,0,0,0-4.392-1.856c-9.255-3.989-17.639-7.988-28.738-12.489l-1.467-.532c-.779,4.2-2.6,13.32-4.97,21.29A349.347,349.347,0,0,1,82.491,156.266Z"/><path class="b" d="M72.7,159.722c-6.515-7.265-26.128-34.954-25.874-36.408.189-1.077,2.276-3.208,4.432-5.1a83.177,83.177,0,0,1-6.053-7.637c-.815-1.107,9.955-10.574,13.116-12.473,1.143,3.871,3.848,10.521,6.981,19.5,5,14.315,11.844,30.291,15.53,38.249l1.114,1.675c-.8,1.8-1.55,3.425-2.248,4.825-.4.841-.814,1.633-1.2,2.464l-4.744-3.991C73.451,160.542,73.1,160.171,72.7,159.722Z"/><path class="b" d="M82.162,172.334l-5.037,6.955c-.288-3.256-.459-5.488-.461-6.059,0-5.529,1.62-7.906,3.03-10.879,4.241-8.5,10.555-25.125,15.62-42.123,2.869-9.631,4.924-20.083,5.318-22.383,2.772,1.544,14.783,11.42,13.984,12.529-1.088,1.513-4.509,5.386-6.332,7.333,2.246,1.93,4.558,4.226,4.754,5.348.263,1.5-18.961,33.265-22.8,38.127Z"/><path class="a" d="M102.205,435a8.365,8.365,0,0,0,4.278-.966,4.074,4.074,0,0,0,1.62-1.909,30.814,30.814,0,0,1-1.392-4.328,168.547,168.547,0,0,1-19.513-.719c0,.65-.009,1.62-.014,2.731A23.906,23.906,0,0,0,102.205,435Z"/><path class="a" d="M55.4,433.36c1.3,1.369,3.288,1.61,5.106,1.644a23.906,23.906,0,0,0,15.27-5.392h0l-.017-2.561a141.886,141.886,0,0,1-19.542.882,30.64,30.64,0,0,1-1.484,4.5A3.843,3.843,0,0,0,55.4,433.36Z"/><path class="c" d="M34.238,463.408c-.115-.152-.225-.309-.328-.47a8.807,8.807,0,0,1-.583-7.38,24.183,24.183,0,0,1,3.787-6.608Q42.6,441.464,48.7,434.46c1.587-1.82,3.38-3.716,5.753-4.164a3.568,3.568,0,0,0,1.773,3.742,8.371,8.371,0,0,0,4.279.966,23.745,23.745,0,0,0,16.619-6.614c-.028,5,.022,6.663,0,11.664a10.48,10.48,0,0,1-.439,3.607c-1.028,2.78-4.075,4.119-6.521,5.793-6.363,4.354-9.715,12.3-16.382,16.17a17.212,17.212,0,0,1-15.914.57A10.036,10.036,0,0,1,34.238,463.408Z"/><path class="c" d="M128.472,463.408q.174-.228.329-.47a8.807,8.807,0,0,0,.583-7.38,24.183,24.183,0,0,0-3.787-6.608q-5.483-7.486-11.588-14.49c-1.586-1.82-3.38-3.716-5.752-4.164a3.567,3.567,0,0,1-1.774,3.742,8.365,8.365,0,0,1-4.278.966,23.743,23.743,0,0,1-16.619-6.614c.027,5-.022,6.663,0,11.664a10.48,10.48,0,0,0,.439,3.607c1.027,2.78,4.075,4.119,6.521,5.793,6.363,4.354,9.714,12.3,16.382,16.17a17.212,17.212,0,0,0,15.914.57A10.024,10.024,0,0,0,128.472,463.408Z"/><path class="b" d="M86.364,234.364h0a119.8,119.8,0,0,1-4.877-17.6q-.192-.936-.37-1.864l-.356-.04a108.691,108.691,0,0,1-5.666,19.4c-15.372-.137-30.053-.275-38.558-.414,1.65,17.269,3.488,51.4,5.175,79.424,1.986,33,2.8,106.105,3.245,113.47,4.933,1.645,24.116,1.761,35.557-.426,0,0,.308-.059.625-.116,9.392,1.953,31.385,2.187,36.318.542.445-7.365,1.259-80.473,3.246-113.47,1.672-27.78,2.988-61.11,4.619-78.508C116.729,234.636,101.871,234.5,86.364,234.364Z"/><path class="a" d="M99.008,96.924a19.86,19.86,0,0,0-2.575-2.912A46.208,46.208,0,0,1,83.1,103.305c-.276.125-.584.278-.673.568a1.072,1.072,0,0,0,.154.753H78.007a1.072,1.072,0,0,0,.154-.753c-.089-.29-.4-.443-.673-.568a46.217,46.217,0,0,1-13.333-9.293,22.812,22.812,0,0,0-4.647,6.278s-.068.132-.2.362c1.392,4.1,3.562,10,5.987,16.95,5,14.315,11.844,30.291,15.53,38.249l.959,2.027a339.812,339.812,0,0,0,13.527-37.65c2.384-8,4.206-17.163,4.98-21.348C99.9,98.218,99.473,97.562,99.008,96.924Z"/><path class="d" d="M83.3,105.637a9,9,0,0,1-.716-1.011c-1.661-.01-2.976-.006-4.573,0a43.025,43.025,0,0,1-2.758,3.561c-.226.277-.46.562-.7.851.259,1.318.477,2.315.788,3.65q.1.414.2.829a7.34,7.34,0,0,1,.3,1.837c0,.388-1.408,11.929-2.725,22.7,2.958,7.213,5.771,13.616,7.71,17.8l.949,2.05c2.123-4.783,4.554-10.927,7-17.758l-.072-.481c-1.639-10.985-3.534-23.485-3.525-24.1A11.119,11.119,0,0,1,85.9,112.3c.133-.408.423-1.472.711-2.562-.436-.529-.866-1.051-1.273-1.549C84.525,107.191,83.8,106.293,83.3,105.637Z"/><path class="a" d="M75.148,200.436c-1.8-1.154-5.568-1.36-8.494-1.815-3.325,6.071-6.763,12.088-10.487,17.949,1.384.972,2.8,1.882,4.124,2.908,0,0,8.946,6.074,15.312-1.177a31.35,31.35,0,0,0,3.8-9.285C80.644,203.622,75.148,200.436,75.148,200.436Z"/><path class="a" d="M85.062,197.942c-2.192-.051-5.952,1.674-7.847,2.787a6.556,6.556,0,0,0-3.47,4.806s.121,1.985.25,4.112c-2.122,1.082-3.991,2.074-4.968,2.648A32.669,32.669,0,0,0,63.9,216c-1.991,2.446-1.979,5.245-1.188,6.29s2.185,2.358,3.829,1.972a4.023,4.023,0,0,0,1.309,3.8c1.433,1.4,3.847,1.018,4.936.364-.645.857.8,3.441,2.989,3.135a20.471,20.471,0,0,0,4.6-1.277c2.143-.9,7.943-3.656,13.192-6.644a88.778,88.778,0,0,0,8.135-5.5c1.162-.824,2.285-1.691,3.362-2.612l-.476-.936c-3.391-5.421-6.554-10.965-9.617-16.557C91.637,198.376,88.671,198.026,85.062,197.942Z"/><path class="e" d="M63.24,87.776a62.144,62.144,0,0,1-.546,6.976,1.989,1.989,0,0,0,.586,1.414,2,2,0,0,0,2.828,0,2.355,2.355,0,0,0,.586-1.414,62.144,62.144,0,0,0,.546-6.976,2,2,0,0,0-4,0Z"/><path class="e" d="M94,88.447a57.887,57.887,0,0,0,.5,6.59,2.2,2.2,0,0,0,.586,1.414,2,2,0,0,0,2.828,0,1.911,1.911,0,0,0,.586-1.414,57.887,57.887,0,0,1-.5-6.59,2,2,0,0,0-4,0Z"/><path class="e" d="M35.965,462.4c-1.764-2.411-1.3-5.449-.01-7.975a55.55,55.55,0,0,1,5.739-8.272q3.174-4.14,6.559-8.112c1.829-2.153,3.807-5.162,6.733-5.814l-2.461-2.461a5.829,5.829,0,0,0,3.884,6.568c2.632,1.032,5.78.761,8.51.323a25.448,25.448,0,0,0,13.62-6.851l-3.414-1.414c-.022,4.261.164,8.554-.021,12.81-.093,2.138-1.178,3.407-2.893,4.565a57.605,57.605,0,0,0-5.2,3.61c-6.047,5.128-9.633,13.856-17.855,16-4.468,1.166-10.438.41-13.5-3.383a2.014,2.014,0,0,0-2.829,0,2.048,2.048,0,0,0,0,2.829c3.11,3.849,8.921,5.341,13.677,5.006a20.359,20.359,0,0,0,12.98-6.144c3.2-3.157,5.678-6.96,8.876-10.119a31.092,31.092,0,0,1,5.264-3.947A11.793,11.793,0,0,0,78.28,445c1.26-2.721.856-6.042.849-8.965-.006-2.547-.017-5.094,0-7.642a2.022,2.022,0,0,0-3.414-1.414,21.435,21.435,0,0,1-9.4,5.293,20.485,20.485,0,0,1-6.213.724c-1.138-.045-4.061-.4-3.718-2.165a2.027,2.027,0,0,0-2.461-2.46c-3.578.8-5.93,3.833-8.189,6.48q-4.026,4.72-7.782,9.662c-4.04,5.3-10.39,13.142-5.44,19.907a2.06,2.06,0,0,0,2.737.717A2.014,2.014,0,0,0,35.965,462.4Z"/><path class="e" d="M35.655,248.522c1.207,16.357,2.152,32.734,3.124,49.106.733,12.345,1.462,24.682,1.906,37.042.444,12.344.764,24.692,1.05,37.041q.394,17.1.713,34.2c.132,6.63.191,13.269.463,19.9.013.313.027.627.046.941a2.074,2.074,0,0,0,1.468,1.928,28.762,28.762,0,0,0,6.56,1.007c3.095.241,6.206.307,9.31.289a115.956,115.956,0,0,0,20.75-1.721c2.527-.476,1.457-4.332-1.063-3.857A110.011,110.011,0,0,1,60.3,425.969c-3.012.017-6.028-.045-9.032-.268a22.931,22.931,0,0,1-5.775-.885l1.469,1.929c-.344-5.792-.324-11.621-.44-17.42q-.333-16.534-.679-33.071c-.277-12.436-.587-24.872-1-37.305-.392-11.675-.986-23.331-1.679-34.992-.991-16.672-1.945-33.349-3.11-50.01q-.189-2.714-.39-5.425c-.188-2.551-4.189-2.572-4,0Z"/><path class="e" d="M122.3,248.673c-1.082,16.444-1.836,32.909-2.727,49.365-.665,12.261-1.405,24.51-1.845,36.782-.441,12.294-.76,24.593-1.044,36.891q-.395,17.1-.713,34.2c-.132,6.643-.189,13.3-.465,19.935-.012.3-.026.6-.044.9l1.469-1.929a12.836,12.836,0,0,1-1.908.429c-.632.1-1.358.179-2.307.261-2.357.2-4.725.282-7.091.316a164.84,164.84,0,0,1-16.542-.561,64.638,64.638,0,0,1-7.407-.986c-2.513-.514-3.588,3.341-1.064,3.857A96.5,96.5,0,0,0,96,429.689a138.3,138.3,0,0,0,16.109-.134,25.661,25.661,0,0,0,5.884-.882,2.073,2.073,0,0,0,1.468-1.928c.344-5.792.324-11.621.441-17.42q.33-16.455.675-32.909c.275-12.387.583-24.774,1-37.157.388-11.637,1-23.252,1.648-34.876.944-16.813,1.715-33.635,2.743-50.443q.16-2.634.334-5.267c.169-2.57-3.832-2.56-4,0Z"/><path class="e" d="M130.2,464.417c4.95-6.764-1.4-14.61-5.439-19.907q-3.764-4.932-7.782-9.662c-2.259-2.648-4.611-5.682-8.189-6.48a2.027,2.027,0,0,0-2.461,2.46c.343,1.766-2.586,2.12-3.718,2.165a20.485,20.485,0,0,1-6.213-.724,21.45,21.45,0,0,1-9.4-5.293,2.022,2.022,0,0,0-3.414,1.414c.012,2.269.006,4.537,0,6.806a48.173,48.173,0,0,0,.189,7.675c.812,5.082,5.969,6.587,9.377,9.571,3.39,2.968,5.9,6.763,8.938,10.058,3.234,3.5,7.2,6.272,11.985,7.069,5.372.895,12.207-.283,15.814-4.747a2.062,2.062,0,0,0,0-2.829,2.016,2.016,0,0,0-2.829,0c-2.682,3.32-7.738,4.32-11.787,3.739-4.287-.615-7.624-3.079-10.479-6.2-2.743-3-5.056-6.374-8-9.182a30.229,30.229,0,0,0-4.906-3.7c-1.437-.9-3.229-1.881-3.929-3.522a11.037,11.037,0,0,1-.371-4.222q0-1.774,0-3.548c.007-2.323.014-4.647,0-6.97L84.172,429.8a25.442,25.442,0,0,0,13.619,6.851c2.666.427,5.738.7,8.324-.252a5.866,5.866,0,0,0,4.07-6.639l-2.46,2.461c2.863.638,4.786,3.526,6.578,5.633q3.458,4.062,6.714,8.293a57.644,57.644,0,0,1,5.642,8.083c1.343,2.572,1.9,5.682.087,8.164a2.013,2.013,0,0,0,.717,2.736A2.045,2.045,0,0,0,130.2,464.417Z"/><path class="e" d="M79.355,265.626c-.443,4.852-.392,9.769-.431,14.636-.06,7.289-.032,14.579.009,21.868.06,10.325.178,20.65.163,30.976q-.024,16.989-.066,33.979-.034,19.2-.038,38.407,0,6.946.033,13.892c.012,2.194-.077,4.426.089,6.616a2.305,2.305,0,0,0,1.016,1.93,2.01,2.01,0,0,0,2.736-.717,2.051,2.051,0,0,0-.717-2.736l0,0,.717.718c.179.332.251,1.4.238.561-.005-.35-.02-.7-.027-1.052-.023-1.233-.031-2.467-.04-3.7-.03-4.27-.036-8.539-.041-12.808q-.02-18.747.03-37.493.03-17.519.068-35.038c.016-9.555-.061-19.108-.128-28.662-.089-12.965-.414-26,.229-38.956.041-.807.089-1.614.162-2.419a2.014,2.014,0,0,0-2-2,2.043,2.043,0,0,0-2,2Z"/><path class="e" d="M76.268,117.272c2.881,0,5.761-.064,8.641-.065a2,2,0,0,0,0-4c-2.88,0-5.76.064-8.641.065a2,2,0,0,0,0,4Z"/><path class="e" d="M72.6,109.465c.29,1.465.6,2.925.96,4.376A5.8,5.8,0,0,1,73.8,115.8c-.128,1.505-.347,3.007-.526,4.506q-1.046,8.736-2.123,17.469a2.012,2.012,0,0,0,2,2,2.049,2.049,0,0,0,2-2q1.087-8.89,2.16-17.781c.172-1.441.406-2.892.5-4.34a8.9,8.9,0,0,0-.347-2.666c-.364-1.523-.707-3.048-1.011-4.583-.5-2.523-4.356-1.455-3.857,1.063Z"/><path class="e" d="M82.84,102.613l-5.124.01a2,2,0,0,0,0,4l5.124-.01a2,2,0,0,0,0-4Z"/><path class="e" d="M90.637,139.13c-.895-6-1.8-12-2.685-18q-.231-1.573-.457-3.148l-.156-1.106c-.006-.05-.092-.687-.026-.185-.019-.144-.039-.288-.056-.432-.24-1.988.776-3.932,1.257-5.833.632-2.5-3.224-3.561-3.857-1.063-.554,2.188-1.689,4.472-1.415,6.774.214,1.81.5,3.615.76,5.419.909,6.216,1.851,12.427,2.778,18.64a2.014,2.014,0,0,0,2.46,1.4,2.051,2.051,0,0,0,1.4-2.46Z"/><path class="e" d="M92.245,116.262a59.516,59.516,0,0,0,8.37-11.348c.6-.994,1.2-1.991,1.806-2.984a2.9,2.9,0,0,0,.623-1.905,5.219,5.219,0,0,0-.817-1.8,24.3,24.3,0,0,0-4.38-5.623,2.035,2.035,0,0,0-2.828,0,43.438,43.438,0,0,1-7.17,5.811c-1.259.816-2.556,1.574-3.889,2.262-1.266.653-3.034,1.117-3.462,2.67a3.629,3.629,0,0,0,.946,3.142c.866,1.149,1.779,2.262,2.691,3.375,1.753,2.141,3.535,4.258,5.281,6.4a2.014,2.014,0,0,0,2.829,0,2.046,2.046,0,0,0,0-2.828c-1.458-1.792-2.942-3.562-4.411-5.344-.827-1-1.653-2.008-2.463-3.025-.228-.287-.458-.573-.675-.87-.094-.129-.184-.286-.288-.408-.178-.209.044-.247.018.086l-.273,1.009q-.5.409-.044.15l.31-.143c.313-.147.625-.3.935-.448q.949-.471,1.875-.988,1.908-1.064,3.71-2.305a48.337,48.337,0,0,0,6.908-5.722H95.019a21.847,21.847,0,0,1,4.334,5.874V99.281c-3.019,4.924-5.83,10.025-9.937,14.153C87.6,115.26,90.426,118.09,92.245,116.262Z"/><path class="e" d="M71.171,113.434c-4.106-4.128-6.917-9.229-9.936-14.153V101.3a21.847,21.847,0,0,1,4.334-5.874H62.741a48.471,48.471,0,0,0,6.908,5.722q1.8,1.238,3.71,2.305.849.474,1.719.91.465.233.935.453.233.109.466.216c.3.173.287.123-.045-.15l-.273-1.009c-.022-.285.216-.318.019-.086-.086.1-.155.223-.232.331-.233.324-.483.635-.732.947-.81,1.017-1.636,2.022-2.463,3.025-1.468,1.782-2.953,3.552-4.41,5.344a2.058,2.058,0,0,0,0,2.828,2.014,2.014,0,0,0,2.828,0c1.711-2.1,3.457-4.177,5.175-6.273.923-1.126,1.844-2.253,2.725-3.411a3.717,3.717,0,0,0,1.019-3.237c-.416-1.509-2.074-1.961-3.306-2.59q-2-1.023-3.892-2.243a43.5,43.5,0,0,1-7.323-5.91,2.036,2.036,0,0,0-2.828,0,24.224,24.224,0,0,0-4.294,5.472,7.688,7.688,0,0,0-.867,1.689,2.675,2.675,0,0,0,.587,2.171c.6.993,1.2,1.99,1.806,2.984a59.516,59.516,0,0,0,8.37,11.348C70.161,118.089,72.99,115.261,71.171,113.434Z"/><path class="e" d="M34.329,208.661c-1.384,13.064-2.827,26.116-3.854,39.215-.2,2.567,3.8,2.553,4,0,1.027-13.1,2.47-26.151,3.854-39.215a2.013,2.013,0,0,0-2-2,2.045,2.045,0,0,0-2,2Z"/><path class="e" d="M33.6,164.312q.452,5.659.86,11.322a2,2,0,0,0,4,0q-.411-5.662-.86-11.322a2,2,0,0,0-4,0Z"/><path class="e" d="M26.978,115.565c1.694,11.827,4.133,23.569,5.428,35.45.483,4.424.842,8.862,1.2,13.3.2,2.549,4.206,2.571,4,0-.555-6.913-1.163-13.81-2.171-20.673-.974-6.632-2.084-13.244-3.154-19.861-.5-3.089-1-6.178-1.444-9.276a2.013,2.013,0,0,0-2.46-1.4,2.052,2.052,0,0,0-1.4,2.46Z"/><path class="e" d="M49.854,102.081q-6.106,2.631-12.173,5.355c-2.08.929-4.142,1.914-6.242,2.8a23.3,23.3,0,0,0-5.216,2.419,2.064,2.064,0,0,0-.718,2.737,2.015,2.015,0,0,0,2.737.717c1.554-1.165,3.456-1.65,5.216-2.419,2.088-.913,4.161-1.866,6.242-2.8q6.07-2.712,12.173-5.355a2.011,2.011,0,0,0,.718-2.736,2.052,2.052,0,0,0-2.737-.718Z"/><path class="e" d="M86.077,174.335a4.522,4.522,0,0,1,.038-.558l-.072.531a3.772,3.772,0,0,1,.236-.873l-.2.477a3.048,3.048,0,0,1,.226-.431c.037-.06.08-.115.119-.173-.361.547-.236.3-.107.162.058-.061.12-.116.182-.174.219-.2-.442.3-.171.133a3.851,3.851,0,0,1,.476-.261l-.478.2a3.853,3.853,0,0,1,.932-.248l-.532.072a4.346,4.346,0,0,1,1.093,0l-.531-.071a3.79,3.79,0,0,1,.838.226l-.477-.2a4.6,4.6,0,0,1,.485.259c.273.16-.392-.342-.163-.131.063.059.129.115.189.177a1.77,1.77,0,0,0,.171.193c-.072-.053-.33-.459-.14-.167a3.374,3.374,0,0,1,.243.456l-.2-.478a4.165,4.165,0,0,1,.278,1.03l-.072-.531A4.242,4.242,0,0,1,88.45,175l.072-.531a3.561,3.561,0,0,1-.226.843l.2-.478a3.317,3.317,0,0,1-.243.47c-.036.057-.078.111-.115.168.362-.565.227-.282.093-.138-.065.069-.135.132-.2.2-.217.206.441-.307.176-.132a3.718,3.718,0,0,1-.536.3l.477-.2a3.8,3.8,0,0,1-.918.25l.531-.071a4.631,4.631,0,0,1-1.072.01l.532.071a3.4,3.4,0,0,1-.813-.21l.478.2a3.778,3.778,0,0,1-.464-.251c-.264-.162.447.384.123.092-.061-.055-.118-.113-.174-.174-.128-.139-.238-.384.115.165-.043-.067-.091-.131-.133-.2a3.5,3.5,0,0,1-.232-.452l.2.478a4.229,4.229,0,0,1-.273-1.007l.071.532a4.749,4.749,0,0,1-.042-.6,2,2,0,0,0-4,0,5.346,5.346,0,0,0,2.613,4.785,5.506,5.506,0,0,0,6.485-1.092,5.1,5.1,0,0,0,1.2-2.5,5.96,5.96,0,0,0-.235-2.994,5.062,5.062,0,0,0-2.123-2.661,5.786,5.786,0,0,0-3.829-.609,4.854,4.854,0,0,0-3.224,2.024,5.326,5.326,0,0,0-.891,3.046,2,2,0,1,0,4,0Z"/><path class="e" d="M56.39,98.684c.928,3.063,2.1,6.055,3.211,9.054,1.613,4.343,3.15,8.712,4.717,13.071,3.084,8.581,6.5,17.045,10.079,25.429,1.522,3.561,3.078,7.108,4.7,10.623a2.016,2.016,0,0,0,2.736.717,2.045,2.045,0,0,0,.717-2.736c-3.168-6.853-6.112-13.813-8.926-20.819-3.457-8.608-6.472-17.366-9.692-26.061-1.27-3.428-2.628-6.841-3.689-10.342-.744-2.457-4.606-1.41-3.857,1.064Z"/><path class="e" d="M104.313,102.669c5.291,2.2,10.526,4.532,15.758,6.868,2.407,1.074,4.814,2.148,7.229,3.2s5.273,1.779,7.395,3.365a2.013,2.013,0,0,0,2.737-.717,2.049,2.049,0,0,0-.718-2.737c-2.141-1.6-4.962-2.3-7.4-3.365-2.546-1.112-5.083-2.245-7.62-3.378-5.418-2.419-10.845-4.817-16.323-7.1a2.013,2.013,0,0,0-2.46,1.4,2.052,2.052,0,0,0,1.4,2.461Z"/><path class="e" d="M124.669,207.19c1.428,13.555,2.944,27.1,4.009,40.686.2,2.549,4.2,2.571,4,0-1.065-13.59-2.581-27.131-4.009-40.686a2.058,2.058,0,0,0-2-2,2.014,2.014,0,0,0-2,2Z"/><path class="e" d="M131.867,114.219c-2.261,14.286-4.781,28.609-5.977,43.033-.467,5.626-.852,11.259-1.221,16.893-.169,2.57,3.832,2.56,4,0,.565-8.625,1.02-17.3,2.122-25.877.944-7.343,2.087-14.664,3.214-21.981q.849-5.5,1.719-11.005a2.061,2.061,0,0,0-1.4-2.46,2.014,2.014,0,0,0-2.46,1.4Z"/><path class="e" d="M57.41,96.317a42.158,42.158,0,0,0-5.709,4.389,74.2,74.2,0,0,0-6.054,5.652c-1.208,1.289-3.268,3.293-2.172,5.229a35.139,35.139,0,0,0,2.84,3.818,46.042,46.042,0,0,0,3.525,4.224V116.8a30.166,30.166,0,0,0-3.542,3.544,5.1,5.1,0,0,0-1.475,3.044,5.622,5.622,0,0,0,.983,2.511c1.494,2.629,3.233,5.131,4.935,7.627C55.627,140.693,60.7,147.745,66,154.614a68.308,68.308,0,0,0,6.334,7.625c1.853,1.788,4.685-1.037,2.828-2.829a56.463,56.463,0,0,1-5.041-5.959c-2.314-2.956-4.739-6.224-7.037-9.374-4.459-6.115-8.937-12.275-12.93-18.708-.513-.827-.943-1.7-1.441-2.53-.03-.049.143.544.054.085-.048-.243.088.619.055.424.088.517-.212.367.084.167.053-.036.416-.576.444-.611.325-.405.694-.781,1.057-1.152.724-.739,1.488-1.437,2.263-2.123a2.024,2.024,0,0,0,0-2.828c-2.071-2.12-3.537-4.7-5.493-6.9-.638-.716.011.387-.074.935.044-.285-.281.45-.075.154.093-.133.559-.828.295-.488a24.033,24.033,0,0,1,1.965-2.158c1.8-1.814,3.711-3.522,5.664-5.169a32.083,32.083,0,0,1,4.479-3.407c2.215-1.307.2-4.766-2.019-3.454Z"/><path class="e" d="M99.706,99.623a39.155,39.155,0,0,1,4.543,3.323c2.071,1.66,4.105,3.375,6.037,5.2.728.687,1.436,1.391,2.1,2.141.083.094.463.646.147.168.043.065.2.223.2.292.034.055.066.112.095.171q-.2-.529-.116-.26a1.706,1.706,0,0,1,.18-1.289c-.055.077-.112.154-.169.229a27.578,27.578,0,0,0-2.638,3.133q-1.579,1.806-3.212,3.566a2.023,2.023,0,0,0,0,2.828,34.377,34.377,0,0,1,3.523,3.4c.169.2.683.886.672.89-.041.011.006-1.17.006-.634a1.122,1.122,0,0,1-.107.307c-.137.392.245-.5-.027.056-.194.4-.381.8-.583,1.194-1.376,2.7-2.905,5.328-4.427,7.949q-6.06,10.439-12.539,20.633c-.942,1.479-1.891,2.953-2.867,4.41-.365.546-.734,1.09-1.112,1.628-.141.2-.282.4-.426.595-.062.086-.128.17-.189.258-.3.421.222-.281.031-.038a2.065,2.065,0,0,0,0,2.828,2.014,2.014,0,0,0,2.829,0c4.16-5.307,7.539-11.334,11.041-17.079,3.866-6.344,7.856-12.7,11.2-19.342a11.511,11.511,0,0,0,1.065-2.479,4.086,4.086,0,0,0-1.2-3.34,30.13,30.13,0,0,0-4.065-4.063v2.828c1.862-1.995,3.687-4.038,5.412-6.153.643-.789,1.542-1.635,1.543-2.728a3.313,3.313,0,0,0-.746-1.914c-2.422-3.329-6.053-6-9.246-8.54a44.383,44.383,0,0,0-4.937-3.617c-2.223-1.308-4.238,2.148-2.019,3.454Z"/><path class="e" d="M130.158,245.882c-6.343,1.272-13.557,1.337-20.229,1.207a71.484,71.484,0,0,1-10.282-.765c-2.923-.485-4.9-1.116-6.767-3.536-3.242-4.192-4.977-9.63-6.494-14.63-.746-2.456-4.608-1.409-3.857,1.064,1.506,4.964,3.262,10.094,6.117,14.466,2.014,3.083,4.457,5.289,8.088,6.131a57.959,57.959,0,0,0,10.762,1.2c4.138.165,8.287.12,12.423-.086a76.938,76.938,0,0,0,11.3-1.192c2.522-.506,1.454-4.362-1.064-3.857Z"/><path class="e" d="M32.081,249.469a92.211,92.211,0,0,0,19.7,1.323,71.163,71.163,0,0,0,10.513-.867c3.074-.521,5.883-1.453,8.107-3.749,3.7-3.82,5.829-9.115,7.649-14.018.9-2.417-2.967-3.46-3.857-1.064-1.491,4.017-3.219,8.356-6.056,11.638-1.918,2.218-3.665,2.752-6.522,3.268-6.4,1.157-13.165.97-19.631.588a63.759,63.759,0,0,1-8.837-.976c-2.514-.5-3.589,3.35-1.063,3.857Z"/><path class="e" d="M81.1,199.266c-.816-7.569-1.593-15.145-2.215-22.732a27.837,27.837,0,0,1-.064-6.114c.374-2.734,1.634-5.1,2.831-7.536A199.361,199.361,0,0,0,89.35,144.4c3.025-8.145,5.8-16.4,8.219-24.748A199.325,199.325,0,0,0,102.557,98.4a2.058,2.058,0,0,0-1.4-2.46,2.016,2.016,0,0,0-2.46,1.4c-2.573,14.787-7.121,29.219-12.221,43.306-2.366,6.539-4.856,13.07-7.855,19.35a46.192,46.192,0,0,0-3.228,7.344,22.076,22.076,0,0,0-.638,7.524c.6,8.148,1.47,16.283,2.346,24.405a2.06,2.06,0,0,0,2,2,2.013,2.013,0,0,0,2-2Z"/><path class="e" d="M66.15,200.555c.875.134,1.753.245,2.631.357l.61.079.271.035c.278.036-.4-.056-.125-.017.4.057.8.113,1.2.178a19.446,19.446,0,0,1,2.095.442c.3.085.6.188.9.3.257.094-.149-.052-.191-.081a1.506,1.506,0,0,0,.181.086,4.642,4.642,0,0,1,.413.232,2.02,2.02,0,0,0,2.737-.717,2.042,2.042,0,0,0-.718-2.737,11.541,11.541,0,0,0-4.224-1.357c-.911-.153-1.829-.27-2.746-.388l-1.144-.146c-.305-.04-.132-.02.069.01-.087-.013-.174-.024-.261-.036q-.319-.045-.638-.094a2.188,2.188,0,0,0-1.541.2,2,2,0,0,0,.478,3.655Z"/><path class="e" d="M72.083,206.218q-1.41-.544-2.853-1a2.244,2.244,0,0,0-1.541.2,2.238,2.238,0,0,0-.919,1.195,2.025,2.025,0,0,0,.2,1.542,2.157,2.157,0,0,0,1.2.919q1.441.453,2.853,1a1.522,1.522,0,0,0,.8.036,2.057,2.057,0,0,0,1.663-1.433,2.027,2.027,0,0,0-.2-1.541l-.312-.405a2,2,0,0,0-.883-.514Z"/><path class="e" d="M61.3,217.751c-1.306-1.007-2.691-1.9-4.042-2.849a2,2,0,0,0-2.938,2.259,2.25,2.25,0,0,0,.919,1.195c1.351.945,2.736,1.842,4.043,2.849a2,2,0,0,0,1.541.2,2.044,2.044,0,0,0,1.2-.919,2.022,2.022,0,0,0,.2-1.541l-.2-.478a2.008,2.008,0,0,0-.718-.718Z"/><path class="e" d="M95.02,196.028c-4.756.472-9.662-.871-14.234.832-4.179,1.556-8.408,3.827-9.041,8.675a2.01,2.01,0,0,0,2,2,2.05,2.05,0,0,0,2-2c.2-1.5,1.563-2.563,2.779-3.251a22.275,22.275,0,0,1,4.482-1.961,15.074,15.074,0,0,1,5.25-.254,46,46,0,0,0,6.764-.041,2.056,2.056,0,0,0,2-2,2.014,2.014,0,0,0-2-2Z"/><path class="e" d="M81.624,203.737A104.313,104.313,0,0,0,66.2,211.728a21.919,21.919,0,0,0-3.48,2.609,8.988,8.988,0,0,0-2.428,5.166,5.975,5.975,0,0,0,6.786,6.683l-2.46-2.46c-.7,2.076.525,4.646,2.086,5.972a6.417,6.417,0,0,0,7.1.448l-2.737-2.736a3.852,3.852,0,0,0,.667,4.324,4.8,4.8,0,0,0,4.581,1.749,32.172,32.172,0,0,0,9.132-3.344,98.938,98.938,0,0,0,21.036-13.2c1.969-1.664-.873-4.481-2.828-2.829a88.408,88.408,0,0,1-17.008,10.979q-2.072,1.057-4.172,2.057-.831.394-1.666.775c-.229.1-.46.207-.69.31-.068.031-.637.273-.27.121a20.234,20.234,0,0,1-2.258.773,6.486,6.486,0,0,1-2.044.453.875.875,0,0,1-.738-.367c-.013-.015-.3-.393-.175-.3q.075.132-.035-.18a1.008,1.008,0,0,1-.078.7,2.016,2.016,0,0,0-2.736-2.737,2.393,2.393,0,0,1-2.513-.051,2.334,2.334,0,0,1-.794-1.378,3.21,3.21,0,0,1,0-.537c.005-.321-.111.405,0,.063.533-1.587-1.074-2.683-2.46-2.46-.513.082-1.055-.514-1.357-.835-.342-.363-.365-.291-.426-.759a4.731,4.731,0,0,1,1.191-3.442,19.073,19.073,0,0,1,4.76-3.355,138.309,138.309,0,0,1,13.463-6.747,2.013,2.013,0,0,0,.717-2.736,2.05,2.05,0,0,0-2.736-.718Z"/><path class="e" d="M82.677,210.419c-2.023,1.118-3.992,2.339-6,3.491-1.327.763-2.66,1.516-4.009,2.24-.588.315-1.179.625-1.776.922-.255.126-.512.251-.77.37-.131.061-.265.117-.4.179-.329.154.5-.2.036-.017a2.062,2.062,0,0,0-1.4,2.46,2.013,2.013,0,0,0,2.46,1.4c4.891-1.957,9.274-5.05,13.868-7.588a2,2,0,0,0-2.019-3.454Z"/><path class="e" d="M86.692,215.557A50.272,50.272,0,0,1,81.26,218.8c-1.305.733-2.619,1.45-3.95,2.136-.6.307-1.2.608-1.8.9-.246.117-.493.232-.742.343a2.665,2.665,0,0,1-.368.161c.6-.159.152-.065,0,0A2.05,2.05,0,0,0,73,224.8a2.022,2.022,0,0,0,2.461,1.4,64.825,64.825,0,0,0,7.679-3.857,51.135,51.135,0,0,0,5.572-3.325,2.05,2.05,0,0,0,.717-2.736,2.021,2.021,0,0,0-2.736-.718Z"/><path class="e" d="M26.21,172.454c4.967,2.614,9.663,5.875,14.409,8.859,6.708,4.216,13.4,8.46,20.11,12.671,2.082,1.306,4.151,2.649,6.28,3.879l-.718-2.737c-4.119,7.586-8.358,15.111-13.06,22.354l2.736-.717a241.622,241.622,0,0,1-21.3-11.674c-4.372-2.6-8.7-5.278-12.914-8.126a87.612,87.612,0,0,1-11.432-8.521c-3.378-3.2-6.369-7.381-6.385-12.212-.017-4.8,2.231-9.593,3.793-14.046q4.383-12.5,8.939-24.934c1.554-4.242,3.1-8.491,4.765-12.691a17.617,17.617,0,0,1,3.47-5.99,15.132,15.132,0,0,1,1.693-1.46,29.24,29.24,0,0,1,3.019-1.829c2.224-1.293.213-4.751-2.019-3.453a24.234,24.234,0,0,0-2.641,1.547c-.742.568-1.506,1.111-2.208,1.731a16.194,16.194,0,0,0-3.6,4.815,112.483,112.483,0,0,0-4.806,12.109q-4.92,13.269-9.6,26.627C3.118,163.253,1.1,167.9.274,172.719a18.477,18.477,0,0,0,3.491,14.318c3.137,4.289,7.392,7.473,11.726,10.464,4.157,2.869,8.349,5.668,12.65,8.316a255.187,255.187,0,0,0,25.808,14.4,2.06,2.06,0,0,0,2.736-.718c4.7-7.243,8.941-14.768,13.06-22.354a2.035,2.035,0,0,0-.717-2.736c-4.939-2.853-9.708-6.032-14.53-9.075-6.684-4.217-13.359-8.449-20.077-12.611-2.04-1.264-4.066-2.6-6.192-3.723-2.276-1.2-4.3,2.253-2.019,3.454Z"/><path class="e" d="M133.355,168.332c-4.967,2.614-9.662,5.876-14.409,8.859-6.708,4.217-13.4,8.461-20.11,12.671-2.082,1.307-4.15,2.649-6.279,3.879a2.038,2.038,0,0,0-.718,2.737c4.12,7.586,8.358,15.11,13.06,22.354a2.064,2.064,0,0,0,2.737.717A243.954,243.954,0,0,0,129.6,207.476c4.447-2.656,8.851-5.4,13.124-8.324,4.1-2.814,8.358-5.562,11.91-9.078,3.644-3.608,6.5-8.183,7.035-13.369s-1.534-10.346-3.217-15.153c-2.914-8.323-6.019-16.581-9.13-24.831-1.667-4.421-3.343-8.838-5.062-13.239a26.076,26.076,0,0,0-3.633-6.967,34.643,34.643,0,0,0-3.988-3.784c-1.9-1.732-4.735,1.089-2.828,2.828a43.648,43.648,0,0,1,3.524,3.23,18.031,18.031,0,0,1,2.9,5.316c1.406,3.572,2.767,7.16,4.127,10.749,3.149,8.308,6.267,16.63,9.259,25,1.548,4.327,3.5,8.812,4.036,13.405s-1.3,8.886-4.283,12.325c-3.2,3.694-7.279,6.4-11.267,9.153s-8.046,5.364-12.18,7.879A251.625,251.625,0,0,1,105.617,216.1l2.736.718c-4.7-7.244-8.941-14.768-13.06-22.354l-.717,2.736c4.938-2.853,9.707-6.032,14.529-9.075,6.684-4.217,13.359-8.449,20.077-12.611,2.04-1.264,4.066-2.6,6.192-3.723,2.279-1.2.26-4.653-2.019-3.454Z"/><path class="c" d="M50.288,51c.986,1.015,1.536-1.064,1.908-1.876.594-1.294,1.464-3.181,2.1-4.453.35-.7.855-1.727,1.165-2.442q.492-1.136,1.044-2.238a45.289,45.289,0,0,1,2.458-4.31A5.717,5.717,0,0,1,60.536,33.9c1.929-1.266,4.577-.244,6.931-.421,2.614-.2,4.78-1.885,7.191-2.845,3.351-1.336,8.492-1.688,11.74-.146,1.644.084,3.176.012,4.665,0a29.54,29.54,0,0,1,4.994.222,15.886,15.886,0,0,1,10.528,7.75,37.674,37.674,0,0,1,3.8,8.4,29.241,29.241,0,0,1,.71,3.188c.057.361.1.731.131,1.094.023.246.27.334.85-.06l-.079.109a4.547,4.547,0,0,1,3.618-1.069c2.274-7.472,1.659-16.946-.552-22.594-1.52-3.886-3.85-8.371-8.57-10.961l-4.333-3.834C100.21,8.779,96.145,5.4,90.8,3.488c-5.6-2-21.923-2.339-27.411,2.406L57.757,9.747c-6.284,2.868-10.718,9.733-12.606,16.808-1.946,7.29-1.963,17.856.776,23.767a4.5,4.5,0,0,1,4.415.865Z"/><path class="e" d="M103.882,11.72C97.83-.2,81.837-1.314,70.26.952A18.052,18.052,0,0,0,61.977,4.48C60,6.137,62.845,8.954,64.805,7.308a14.482,14.482,0,0,1,5.786-2.347A40.638,40.638,0,0,1,78.5,4.113c4.859-.1,9.941.16,14.339,2.417a16.859,16.859,0,0,1,7.589,7.209c1.165,2.3,4.618.273,3.454-2.019Z"/><path class="e" d="M56.747,8.02c-7.2,3.386-11.785,11.02-13.657,18.516a47.232,47.232,0,0,0-1.317,11.887A34.186,34.186,0,0,0,43.558,49.8c.883,2.4,4.75,1.36,3.858-1.063-2.372-6.435-2.126-14.2-.553-20.793,1.6-6.708,5.459-13.445,11.9-16.473,2.328-1.094.3-4.544-2.019-3.454Z"/><path class="e" d="M86.254,29.234a15.66,15.66,0,0,0-12.507-.375c-1.875.776-3.614,2.025-5.605,2.492s-4.086-.274-6.12-.018c-2.284.286-3.709,1.655-4.907,3.527a45.055,45.055,0,0,0-3.131,5.793c-.762,1.7-1.554,3.37-2.3,5.074-.385.886-.875,1.7-1.312,2.556-.146.286-.256.59-.389.882-.067.153-.14.3-.219.451q-.513.753.887-.368l1.009.274.037.063c-1.948-1.662-4.79,1.154-2.828,2.829,1.632,1.393,3.515.86,4.461-1,.79-1.552,1.582-3.113,2.254-4.724.7-1.674,1.5-3.317,2.282-4.953a29.028,29.028,0,0,1,3.2-5.617c1.2-1.493,3.567-.715,5.2-.64a12.318,12.318,0,0,0,6.062-1.505A18.71,18.71,0,0,1,78.008,31.8a11.529,11.529,0,0,1,6.227.891,2.06,2.06,0,0,0,2.736-.718,2.015,2.015,0,0,0-.717-2.736Z"/><path class="e" d="M73.832,23.681a14.018,14.018,0,0,1,10.193,1.673c2.639,1.519,4.048,3.652,5.433,6.377,1.167,2.3,4.619.273,3.454-2.019a17.719,17.719,0,0,0-7.105-7.945,18.219,18.219,0,0,0-13.038-1.943c-2.51.566-1.448,4.424,1.063,3.857Z"/><path class="e" d="M95.905,32.16c4.625,1.114,7.468,4.565,9.681,8.572a31.23,31.23,0,0,1,3.006,7.181c.167.644.32,1.292.445,1.947.118.62.106,1.317.286,1.918.516,1.722,2.432,1.825,3.758,1.027,2.2-1.326.194-4.786-2.019-3.454.023.081-.029.1-.157.069h1.064l-.114-.029.882.514-.071-.073.515.883c-.27-.956-.388-2.522-.687-3.69a26.659,26.659,0,0,0-1.172-3.524,42.329,42.329,0,0,0-3.583-6.971c-2.578-3.977-6.077-7.1-10.771-8.227-2.5-.6-3.569,3.253-1.063,3.857Z"/><path class="e" d="M105.479,18.29c4.609,2.608,7.29,7.63,8.556,12.633a36.138,36.138,0,0,1-.206,18.161c-.686,2.485,3.172,3.545,3.857,1.063a40.208,40.208,0,0,0,.118-20.629c-1.563-5.866-4.911-11.629-10.306-14.682-2.244-1.27-4.262,2.185-2.019,3.454Z"/><path class="e" d="M113.35,52.609a2.505,2.505,0,0,1,3.566.47,5.226,5.226,0,0,1,.5,2.643,15.559,15.559,0,0,1-.219,3.2c-.694,3.8-2.63,8.35-6.853,9.107a2.018,2.018,0,0,0-1.4,2.461,2.044,2.044,0,0,0,2.46,1.4c6.411-1.149,9.469-8.39,9.952-14.2.247-2.979.011-6.388-2.566-8.319a6.62,6.62,0,0,0-8.275.418,2.015,2.015,0,0,0,0,2.828,2.044,2.044,0,0,0,2.829,0Z"/><path class="e" d="M108.831,66.541a17.331,17.331,0,0,1-1.009,4.678c-.09.276-.2.549-.277.827-.037.126-.2.479.024-.036-.141.328-.3.65-.456.969a39.282,39.282,0,0,1-3.389,5.448c-2.958,4.057-6.973,8.354-12.039,9.542-2.5.588-1.444,4.446,1.064,3.857,6.032-1.415,10.714-6.348,14.263-11.154,3.066-4.151,5.605-8.855,5.819-14.131.1-2.574-3.9-2.569-4,0Z"/><path class="e" d="M51.812,49.781a6.622,6.622,0,0,0-8.274-.418c-2.58,1.926-2.813,5.344-2.566,8.319.482,5.81,3.54,13.052,9.951,14.2a2.057,2.057,0,0,0,2.461-1.4,2.018,2.018,0,0,0-1.4-2.461c-4.222-.757-6.159-5.307-6.852-9.107a15.415,15.415,0,0,1-.223-3.019,6.006,6.006,0,0,1,.431-2.7,2.491,2.491,0,0,1,3.641-.592,2.053,2.053,0,0,0,2.828,0,2.015,2.015,0,0,0,0-2.828Z"/><path class="e" d="M49.711,66.266A35.618,35.618,0,0,0,57.3,83.319c4.269,5.054,9.919,8.709,16.574,9.427a2.012,2.012,0,0,0,2-2,2.046,2.046,0,0,0-2-2c-5.711-.616-10.483-4.272-14.026-8.592-3.494-4.261-5.34-9.586-6.277-14.952a2.017,2.017,0,0,0-2.46-1.4,2.046,2.046,0,0,0-1.4,2.461Z"/><path class="e" d="M75.509,76.35a12.789,12.789,0,0,0,6.155,1.434,10.12,10.12,0,0,0,6.3-1.9,2,2,0,0,0,0-2.828,2.062,2.062,0,0,0-2.829,0c.686-.534-.069.016-.288.131-.171.089-.637.23-.024.031-.17.055-.335.129-.5.184-.215.069-.434.128-.654.179-.118.027-.7.06-.76.143.068-.095.392-.045-.012,0-.138.014-.277.026-.416.035q-.5.031-1,.028c-.3,0-.6-.012-.9-.033-.137-.009-.275-.02-.412-.034-.078-.007-.156-.016-.235-.026q-.233-.029.159.021a3.771,3.771,0,0,1-1.321-.293c-.185-.055-.365-.122-.548-.184-.462-.158.4.194-.018,0-.227-.107-.45-.218-.671-.335a2,2,0,1,0-2.019,3.454Z"/><path class="e" d="M80.437,62.122a27.862,27.862,0,0,1,.654,2.993l-.071-.532a1.84,1.84,0,0,1,.011.413l.071-.532a.9.9,0,0,1-.045.186l.2-.478a.817.817,0,0,1-.066.12l.313-.405a.642.642,0,0,1-.1.1l.405-.313a1.986,1.986,0,0,1-.237.125l.477-.2a1.723,1.723,0,0,1-.4.116l.532-.071a1.568,1.568,0,0,1-.375,0l.531.071c-.141-.019-.28-.054-.421-.073a1.515,1.515,0,0,0-.8-.035,1.486,1.486,0,0,0-.743.237,2,2,0,0,0-.718,2.736,1.912,1.912,0,0,0,1.195.919c.364.049.716.141,1.086.157a3.56,3.56,0,0,0,1.652-.4,2.485,2.485,0,0,0,1.347-1.626,3.886,3.886,0,0,0-.014-1.7c-.163-.964-.386-1.919-.634-2.865a2,2,0,0,0-2.46-1.4,2.025,2.025,0,0,0-1.2.919,2.1,2.1,0,0,0-.2,1.541Z"/><path class="e" d="M65.064,53.524c-.5,1.624-.174,5.36,2.9,5.678,4.067-.025,4.283-4.541,2.914-6.665C69.759,50.8,66.464,50.076,65.064,53.524Z"/><path class="e" d="M97.626,53.524c.5,1.624.174,5.36-2.9,5.678-4.067-.025-4.283-4.541-2.914-6.665C92.93,50.8,96.226,50.076,97.626,53.524Z"/></svg>